<?xml version="1.0" encoding="UTF-8" standalone="no"?>
<svg
   xmlns:dc="http://purl.org/dc/elements/1.1/"
   xmlns:cc="http://creativecommons.org/ns#"
   xmlns:rdf="http://www.w3.org/1999/02/22-rdf-syntax-ns#"
   xmlns:svg="http://www.w3.org/2000/svg"
   xmlns="http://www.w3.org/2000/svg"
   id="svg40"
   height="72.0mm"
   width="94.4mm"
   version="1.0">
  <metadata
     id="metadata44">
    <rdf:RDF>
      <cc:Work
         rdf:about="">
        <dc:format>image/svg+xml</dc:format>
        <dc:type
           rdf:resource="http://purl.org/dc/dcmitype/StillImage" />
      </cc:Work>
    </rdf:RDF>
  </metadata>
  <defs
     id="defs6">
    <clipPath
       id="clipEmfPath1"
       clipPathUnits="userSpaceOnUse">
      <path
         id="path2"
         d="M 0.95941853,5.436705 L 357.2235,5.436705 L 357.2235,263.68019 L 0.95941853,263.68019 z" />
    </clipPath>
    <pattern
       y="0"
       x="0"
       height="6"
       width="6"
       patternUnits="userSpaceOnUse"
       id="EMFhbasepattern" />
  </defs>
  <path
     id="path8"
     d="  M 49.45003,134.15869   C 51.089037,132.31981 53.927317,132.19988 55.766202,133.83889   L 86.507571,161.58207   C 88.306481,163.22108 88.466384,166.05936 86.827377,167.89824   L 86.827377,167.89824   C 85.148395,169.73713 82.310115,169.89703 80.511205,168.21805   L 49.769836,140.47486   C 47.930951,138.83586 47.771048,135.99758 49.45003,134.15869   z "
     style="fill:#bf9000;fill-rule:evenodd;fill-opacity:1;stroke:none;" />
  <path
     id="path10"
     d="  M 49.45003,134.15869   C 51.089037,132.31981 53.927317,132.19988 55.766202,133.83889   L 86.507571,161.58207   C 88.306481,163.22108 88.466384,166.05936 86.827377,167.89824   L 86.827377,167.89824   C 85.148395,169.73713 82.310115,169.89703 80.511205,168.21805   L 49.769836,140.47486   C 47.930951,138.83586 47.771048,135.99758 49.45003,134.15869   z "
     style="fill:none;stroke:#000000;stroke-width:2.998183px;stroke-linecap:round;stroke-linejoin:round;stroke-miterlimit:4;stroke-dasharray:none;stroke-opacity:1;" />
  <path
     id="path12"
     d="  M 3.0381587,90.185342   C 5.8364627,102.298 8.594791,114.41066 14.511205,122.32586   C 20.467595,130.28104 38.656572,137.87644 38.656572,137.87644   L 38.656572,137.87644   L 43.813446,135.03816   L 43.813446,135.03816   L 50.529376,141.03452   L 50.529376,141.03452   L 55.646275,136.47729   L 55.646275,136.47729   L 3.0381587,90.185342   z "
     style="fill:#a5a5a5;fill-rule:evenodd;fill-opacity:1;stroke:none;" />
  <path
     id="path14"
     d="  M 3.0381587,90.185342   C 5.8364627,102.298 8.594791,114.41066 14.511205,122.32586   C 20.467595,130.28104 38.656572,137.87644 38.656572,137.87644   L 38.656572,137.87644   L 43.813446,135.03816   L 43.813446,135.03816   L 50.529376,141.03452   L 50.529376,141.03452   L 55.646275,136.47729   L 55.646275,136.47729   L 3.0381587,90.185342   z "
     clip-path="url(#clipEmfPath1)"
     style="fill:none;stroke:#000000;stroke-width:3.0381587px;stroke-linecap:round;stroke-linejoin:round;stroke-miterlimit:4;stroke-dasharray:none;stroke-opacity:1;" />
  <path
     id="path16"
     d="  M 195.24167,183.24894   C 192.56329,184.72804 188.64567,190.68443 183.36887,196.12114   C 178.05209,201.55784 170.6166,211.35191 163.54088,215.86917   C 156.4252,220.42641 147.03089,220.30648 140.75469,223.34464   C 134.43852,226.42277 126.04361,232.05936 125.7238,234.17807   C 125.36402,236.29679 137.47668,233.37856 138.75591,236.09691   C 140.03513,238.81526 131.88007,248.36947 133.3192,250.36826   C 134.75833,252.40703 143.8728,246.65051 147.3507,248.16959   C 150.82859,249.68867 150.62871,260.40218 154.1066,259.48274   C 157.58449,258.60327 165.17989,248.44942 168.25803,242.77286   C 171.29618,237.05633 170.29679,230.86008 172.37553,225.30345   C 174.41429,219.70684 176.09328,215.54936 180.61054,209.23319   C 185.1278,202.87704 197.04058,191.5639 199.43913,187.24652   C 201.87765,182.88916 197.92005,181.76984 195.24167,183.24894   z "
     style="fill:#ed7d31;fill-rule:evenodd;fill-opacity:1;stroke:none;" />
  <path
     id="path18"
     d="  M 195.24167,183.24894   C 192.56329,184.72804 188.64567,190.68443 183.36887,196.12114   C 178.05209,201.55784 170.6166,211.35191 163.54088,215.86917   C 156.4252,220.42641 147.03089,220.30648 140.75469,223.34464   C 134.43852,226.42277 126.04361,232.05936 125.7238,234.17807   C 125.36402,236.29679 137.47668,233.37856 138.75591,236.09691   C 140.03513,238.81526 131.88007,248.36947 133.3192,250.36826   C 134.75833,252.40703 143.8728,246.65051 147.3507,248.16959   C 150.82859,249.68867 150.62871,260.40218 154.1066,259.48274   C 157.58449,258.60327 165.17989,248.44942 168.25803,242.77286   C 171.29618,237.05633 170.29679,230.86008 172.37553,225.30345   C 174.41429,219.70684 176.09328,215.54936 180.61054,209.23319   C 185.1278,202.87704 197.04058,191.5639 199.43913,187.24652   C 201.87765,182.88916 197.92005,181.76984 195.24167,183.24894  "
     clip-path="url(#clipEmfPath1)"
     style="fill:none;stroke:#000000;stroke-width:3.9975772px;stroke-linecap:round;stroke-linejoin:round;stroke-miterlimit:4;stroke-dasharray:none;stroke-opacity:1;" />
  <path
     id="path20"
     d="  M 329.16051,187.48637   C 325.68262,185.48758 318.00727,182.3295 319.7662,185.72744   C 321.52514,189.0854 336.596,202.71714 339.79406,207.67414   C 343.0321,212.67111 342.11266,211.91157 339.0745,215.58934   C 336.03634,219.26711 320.7656,227.74197 321.56511,229.74076   C 322.4046,231.69958 330.43973,231.6596 332.11872,235.41732   C 333.7977,239.17505 329.40036,249.8086 331.63901,252.2871   C 333.87765,254.7656 342.39249,248.84918 345.47062,250.28831   C 348.58873,251.76741 348.94852,262.32102 350.18776,261.04179   C 351.42701,259.76257 352.34646,247.88976 352.90612,242.61296   C 353.46578,237.33616 353.54573,234.89764 353.66566,229.38098   C 353.74561,223.82435 355.66445,214.74985 353.46578,209.47305   C 351.30709,204.19624 344.59116,201.35796 340.5536,197.68019   C 336.47608,194.0424 332.6384,189.48516 329.16051,187.48637   z "
     style="fill:#ed7d31;fill-rule:evenodd;fill-opacity:1;stroke:none;" />
  <path
     id="path22"
     d="  M 329.16051,187.48637   C 325.68262,185.48758 318.00727,182.3295 319.7662,185.72744   C 321.52514,189.0854 336.596,202.71714 339.79406,207.67414   C 343.0321,212.67111 342.11266,211.91157 339.0745,215.58934   C 336.03634,219.26711 320.7656,227.74197 321.56511,229.74076   C 322.4046,231.69958 330.43973,231.6596 332.11872,235.41732   C 333.7977,239.17505 329.40036,249.8086 331.63901,252.2871   C 333.87765,254.7656 342.39249,248.84918 345.47062,250.28831   C 348.58873,251.76741 348.94852,262.32102 350.18776,261.04179   C 351.42701,259.76257 352.34646,247.88976 352.90612,242.61296   C 353.46578,237.33616 353.54573,234.89764 353.66566,229.38098   C 353.74561,223.82435 355.66445,214.74985 353.46578,209.47305   C 351.30709,204.19624 344.59116,201.35796 340.5536,197.68019   C 336.47608,194.0424 332.6384,189.48516 329.16051,187.48637  "
     clip-path="url(#clipEmfPath1)"
     style="fill:none;stroke:#000000;stroke-width:3.9975772px;stroke-linecap:round;stroke-linejoin:round;stroke-miterlimit:4;stroke-dasharray:none;stroke-opacity:1;" />
  <path
     id="path24"
     d="  M 66.119927,128.12235   C 67.399152,130.76075 68.318595,130.24107 70.317383,131.36039   C 72.316172,132.43973 73.515445,135.99758 78.112659,134.71835   C 82.749849,133.43913 87.427014,125.76378 98.020594,123.64506   C 108.65415,121.52635 131.80012,120.00727 141.83404,122.00606   C 151.90793,124.00485 155.58571,130.36099 158.30406,135.59782   C 161.02241,140.83465 156.5851,146.0315 158.14416,153.46699   C 159.66323,160.94246 160.86251,172.65536 167.45851,180.25076   C 174.09449,187.84615 183.32889,195.12174 197.88007,199.11932   C 212.47123,203.1169 234.298,204.51605 254.9255,204.15627   C 275.553,203.79649 309.5324,200.27862 321.72502,196.92065   C 333.91763,193.56269 329.8401,190.52453 328.00121,183.9685   C 326.16233,177.45245 315.8086,162.94125 310.65173,157.78437   C 306.45427,149.94912 304.61538,147.03089 302.85645,140.15506   C 301.13749,133.23925 298.89885,124.64446 300.1381,116.4894   C 301.37735,108.29437 305.65475,101.05875 310.33192,91.104785   C 314.96911,81.150818 324.92308,70.477286 328.16111,56.765597   C 331.43913,43.093882 332.51847,13.951545 329.8401,8.954573   C 327.12174,3.9176257 320.68565,20.547547 312.05088,26.743792   C 303.41611,32.980012 295.06118,40.255603 277.91157,46.211993   C 260.76196,52.128407 225.14355,56.125984 209.15324,62.482132   C 193.12296,68.798304 188.04603,77.233192 181.76984,84.268928   C 175.49364,91.264688 177.89219,102.37795 171.53604,104.6166   C 165.17989,106.81526 150.22895,99.299818 143.67293,97.620836   C 137.1169,95.901878 136.55724,95.182314 132.1599,94.342823   C 127.80254,93.503331 122.96548,94.062992 117.44882,92.623864   C 111.97214,91.224712 101.17868,82.749849 93.42338,82.470018   C 85.66808,82.230164 76.033919,85.588128 70.91702,91.104785   C 65.800121,96.581466 66.839491,109.93337 62.642035,115.49001   C 58.484555,121.04664 64.880678,125.48395 66.119927,128.12235   z "
     clip-path="url(#clipEmfPath1)"
     style="fill:#ffffff;fill-rule:evenodd;fill-opacity:1;stroke:none;" />
  <path
     id="path26"
     d="  M 66.119927,128.12235   C 67.399152,130.76075 68.318595,130.24107 70.317383,131.36039   C 72.316172,132.43973 73.515445,135.99758 78.112659,134.71835   C 82.749849,133.43913 87.427014,125.76378 98.020594,123.64506   C 108.65415,121.52635 131.80012,120.00727 141.83404,122.00606   C 151.90793,124.00485 155.58571,130.36099 158.30406,135.59782   C 161.02241,140.83465 156.5851,146.0315 158.14416,153.46699   C 159.66323,160.94246 160.86251,172.65536 167.45851,180.25076   C 174.09449,187.84615 183.32889,195.12174 197.88007,199.11932   C 212.47123,203.1169 234.298,204.51605 254.9255,204.15627   C 275.553,203.79649 309.5324,200.27862 321.72502,196.92065   C 333.91763,193.56269 329.8401,190.52453 328.00121,183.9685   C 326.16233,177.45245 315.8086,162.94125 310.65173,157.78437   C 306.45427,149.94912 304.61538,147.03089 302.85645,140.15506   C 301.13749,133.23925 298.89885,124.64446 300.1381,116.4894   C 301.37735,108.29437 305.65475,101.05875 310.33192,91.104785   C 314.96911,81.150818 324.92308,70.477286 328.16111,56.765597   C 331.43913,43.093882 332.51847,13.951545 329.8401,8.954573   C 327.12174,3.9176257 320.68565,20.547547 312.05088,26.743792   C 303.41611,32.980012 295.06118,40.255603 277.91157,46.211993   C 260.76196,52.128407 225.14355,56.125984 209.15324,62.482132   C 193.12296,68.798304 188.04603,77.233192 181.76984,84.268928   C 175.49364,91.264688 177.89219,102.37795 171.53604,104.6166   C 165.17989,106.81526 150.22895,99.299818 143.67293,97.620836   C 137.1169,95.901878 136.55724,95.182314 132.1599,94.342823   C 127.80254,93.503331 122.96548,94.062992 117.44882,92.623864   C 111.97214,91.224712 101.17868,82.749849 93.42338,82.470018   C 85.66808,82.230164 76.033919,85.588128 70.91702,91.104785   C 65.800121,96.581466 66.839491,109.93337 62.642035,115.49001   C 58.484555,121.04664 64.880678,125.48395 66.119927,128.12235  "
     clip-path="url(#clipEmfPath1)"
     style="fill:none;stroke:#000000;stroke-width:3.9975772px;stroke-linecap:round;stroke-linejoin:round;stroke-miterlimit:4;stroke-dasharray:none;stroke-opacity:1;" />
  <path
     id="path28"
     d="  M 70.557238,111.01272   C 68.198667,110.01333 64.241066,110.65294 62.721987,111.85221   C 61.242883,113.09146 62.042399,116.92913 61.602665,118.36826   C 61.122956,119.84737 62.042399,117.36887 60.04361,120.6069   C 58.044821,123.84494 50.729255,133.51908 49.529982,137.71654   C 48.370684,141.95397 49.649909,145.43186 52.967898,145.95154   C 56.285887,146.47123 64.720775,142.91339 69.437916,140.83465   C 74.115082,138.71593 81.070866,133.43913 81.070866,133.43913   L 81.070866,133.43913   C 80.431254,130.8407 78.712296,121.4464 77.073289,117.84858   C 75.434282,114.25076 72.955784,112.01211 70.557238,111.01272   z "
     style="fill:#ed7d31;fill-rule:evenodd;fill-opacity:1;stroke:none;" />
  <path
     id="path30"
     d="  M 70.557238,111.01272   C 68.198667,110.01333 64.241066,110.65294 62.721987,111.85221   C 61.242883,113.09146 62.042399,116.92913 61.602665,118.36826   C 61.122956,119.84737 62.042399,117.36887 60.04361,120.6069   C 58.044821,123.84494 50.729255,133.51908 49.529982,137.71654   C 48.370684,141.95397 49.649909,145.43186 52.967898,145.95154   C 56.285887,146.47123 64.720775,142.91339 69.437916,140.83465   C 74.115082,138.71593 81.070866,133.43913 81.070866,133.43913   L 81.070866,133.43913   C 80.431254,130.8407 78.712296,121.4464 77.073289,117.84858   C 75.434282,114.25076 72.955784,112.01211 70.557238,111.01272   z "
     style="fill:none;stroke:#000000;stroke-width:3.9975772px;stroke-linecap:round;stroke-linejoin:round;stroke-miterlimit:4;stroke-dasharray:none;stroke-opacity:1;" />
  <path
     id="path32"
     d="  M 75.874016,104.65657   C 75.874016,102.21805 78.152635,100.17929 80.910963,100.17929   C 83.709267,100.17929 85.94791,102.21805 85.94791,104.65657   C 85.94791,107.13507 83.709267,109.13386 80.910963,109.13386   C 78.152635,109.13386 75.874016,107.13507 75.874016,104.65657   z "
     style="fill:#000000;fill-rule:evenodd;fill-opacity:1;stroke:none;" />
  <path
     id="path34"
     d="  M 75.874016,104.65657   C 75.874016,102.21805 78.152635,100.17929 80.910963,100.17929   C 83.709267,100.17929 85.94791,102.21805 85.94791,104.65657   C 85.94791,107.13507 83.709267,109.13386 80.910963,109.13386   C 78.152635,109.13386 75.874016,107.13507 75.874016,104.65657  "
     style="fill:none;stroke:#000000;stroke-width:1.2792248px;stroke-linecap:round;stroke-linejoin:round;stroke-miterlimit:4;stroke-dasharray:none;stroke-opacity:1;" />
  <path
     id="path36"
     d="  M 78.912174,102.97759   C 78.912174,101.61841 80.191399,100.49909 81.710478,100.49909   C 83.269534,100.49909 84.508783,101.61841 84.508783,102.97759   C 84.508783,104.37674 83.269534,105.45609 81.710478,105.45609   C 80.191399,105.45609 78.912174,104.37674 78.912174,102.97759   z "
     style="fill:#ffffff;fill-rule:evenodd;fill-opacity:1;stroke:none;" />
  <path
     id="path38"
     d="  M 78.912174,102.97759   C 78.912174,101.61841 80.191399,100.49909 81.710478,100.49909   C 83.269534,100.49909 84.508783,101.61841 84.508783,102.97759   C 84.508783,104.37674 83.269534,105.45609 81.710478,105.45609   C 80.191399,105.45609 78.912174,104.37674 78.912174,102.97759  "
     style="fill:none;stroke:#000000;stroke-width:1.2792248px;stroke-linecap:round;stroke-linejoin:round;stroke-miterlimit:4;stroke-dasharray:none;stroke-opacity:1;" />
</svg>
